<svg fill="#7447ff" id="Calque_1" data-name="Calque 1" xmlns="http://www.w3.org/2000/svg" xmlns:xlink="http://www.w3.org/1999/xlink" viewBox="0 0 1019.79 1028.95"><defs><style>.cls-1{clip-path:url(#clip-path);}</style><clipPath id="clip-path" transform="translate(252.51 222.9)"><path d="M47.05,413V170.13L257.39,48.7,467.72,170.13V413L257.39,534.45ZM239.18,4.88l-221,127.58A36.39,36.39,0,0,0,0,164V419.15a36.42,36.42,0,0,0,18.21,31.54l221,127.58a36.48,36.48,0,0,0,36.42,0l221-127.58a36.43,36.43,0,0,0,18.2-31.54V164a36.41,36.41,0,0,0-18.2-31.53L275.6,4.88a36.42,36.42,0,0,0-36.42,0"/></clipPath></defs><title>Logo (1)</title><path d="M47.05,413V170.13L257.39,48.7,467.72,170.13V413L257.39,534.45ZM239.18,4.88l-221,127.58A36.39,36.39,0,0,0,0,164V419.15a36.42,36.42,0,0,0,18.21,31.54l221,127.58a36.48,36.48,0,0,0,36.42,0l221-127.58a36.43,36.43,0,0,0,18.2-31.54V164a36.41,36.41,0,0,0-18.2-31.53L275.6,4.88a36.42,36.42,0,0,0-36.42,0" transform="translate(252.51 222.9)"/><g class="cls-1"><rect x="-123.82" y="-77.12" width="762.4" height="737.38" transform="translate(128.69 591.59) rotate(-60)"/></g><path d="M262.59,269,400.52,189.4a10.49,10.49,0,0,0,0-18.17L262.1,91.32a10.46,10.46,0,0,0-10.49,0L113.26,171.19a10.49,10.49,0,0,0,0,18.18L252.13,269a10.5,10.5,0,0,0,10.46,0" transform="translate(252.51 222.9)"/><path d="M274.32,307.43l-.42,160.15a10.49,10.49,0,0,0,15.73,9.11L428,396.81a10.49,10.49,0,0,0,5.24-9.08V227.87a10.49,10.49,0,0,0-15.73-9.08L279.56,298.37a10.5,10.5,0,0,0-5.24,9.06" transform="translate(252.51 222.9)"/><path d="M235.1,298.36,96.18,218.69a10.48,10.48,0,0,0-15.7,9.1V387.73a10.49,10.49,0,0,0,5.24,9.08l138.5,80a10.48,10.48,0,0,0,15.73-9l.42-160.24a10.48,10.48,0,0,0-5.27-9.12" transform="translate(252.51 222.9)"/></svg>